<svg width="155" height="25" viewBox="0 0 155 25" fill="none" xmlns="http://www.w3.org/2000/svg">
<path d="M152.172 20.4423C150.881 20.4423 149.884 20.1123 149.18 19.4523C148.476 18.7777 148.124 17.7877 148.124 16.4823V5.94434H150.874V16.4163C150.874 16.9737 151.013 17.4063 151.292 17.7143C151.585 18.0223 151.988 18.1763 152.502 18.1763C153.118 18.1763 153.631 18.015 154.042 17.6923L154.812 19.6503C154.489 19.9143 154.093 20.1123 153.624 20.2443C153.154 20.3763 152.67 20.4423 152.172 20.4423ZM146.188 10.8283V8.62834H154.02V10.8283H146.188Z" fill="white"/>
<path d="M140.167 20.4422C139.185 20.4422 138.239 20.3175 137.329 20.0682C136.435 19.8042 135.723 19.4889 135.195 19.1222L136.251 17.0322C136.779 17.3695 137.41 17.6482 138.143 17.8682C138.877 18.0882 139.61 18.1982 140.343 18.1982C141.209 18.1982 141.832 18.0809 142.213 17.8462C142.609 17.6115 142.807 17.2962 142.807 16.9002C142.807 16.5775 142.675 16.3355 142.411 16.1742C142.147 15.9982 141.803 15.8662 141.377 15.7782C140.952 15.6902 140.475 15.6095 139.947 15.5362C139.434 15.4629 138.913 15.3675 138.385 15.2502C137.872 15.1182 137.403 14.9349 136.977 14.7002C136.552 14.4509 136.207 14.1209 135.943 13.7102C135.679 13.2995 135.547 12.7569 135.547 12.0822C135.547 11.3342 135.76 10.6889 136.185 10.1462C136.611 9.58887 137.205 9.16354 137.967 8.8702C138.745 8.5622 139.661 8.4082 140.717 8.4082C141.509 8.4082 142.309 8.4962 143.115 8.6722C143.922 8.8482 144.589 9.09754 145.117 9.4202L144.061 11.5102C143.504 11.1729 142.939 10.9455 142.367 10.8282C141.81 10.6962 141.253 10.6302 140.695 10.6302C139.859 10.6302 139.236 10.7549 138.825 11.0042C138.429 11.2535 138.231 11.5689 138.231 11.9502C138.231 12.3022 138.363 12.5662 138.627 12.7422C138.891 12.9182 139.236 13.0575 139.661 13.1602C140.087 13.2629 140.556 13.3509 141.069 13.4242C141.597 13.4829 142.118 13.5782 142.631 13.7102C143.145 13.8422 143.614 14.0255 144.039 14.2602C144.479 14.4802 144.831 14.7955 145.095 15.2062C145.359 15.6169 145.491 16.1522 145.491 16.8122C145.491 17.5455 145.271 18.1835 144.831 18.7262C144.406 19.2689 143.797 19.6942 143.005 20.0022C142.213 20.2955 141.267 20.4422 140.167 20.4422Z" fill="white"/>
<path d="M127.748 20.4422C126.545 20.4422 125.474 20.1855 124.536 19.6722C123.597 19.1442 122.856 18.4255 122.314 17.5162C121.771 16.6069 121.5 15.5729 121.5 14.4142C121.5 13.2409 121.771 12.2069 122.314 11.3122C122.856 10.4029 123.597 9.69154 124.536 9.1782C125.474 8.66487 126.545 8.4082 127.748 8.4082C128.965 8.4082 130.043 8.66487 130.982 9.1782C131.935 9.69154 132.676 10.3955 133.204 11.2902C133.746 12.1849 134.018 13.2262 134.018 14.4142C134.018 15.5729 133.746 16.6069 133.204 17.5162C132.676 18.4255 131.935 19.1442 130.982 19.6722C130.043 20.1855 128.965 20.4422 127.748 20.4422ZM127.748 18.0882C128.422 18.0882 129.024 17.9415 129.552 17.6482C130.08 17.3549 130.49 16.9295 130.784 16.3722C131.092 15.8149 131.246 15.1622 131.246 14.4142C131.246 13.6515 131.092 12.9989 130.784 12.4562C130.49 11.8989 130.08 11.4735 129.552 11.1802C129.024 10.8869 128.43 10.7402 127.77 10.7402C127.095 10.7402 126.494 10.8869 125.966 11.1802C125.452 11.4735 125.042 11.8989 124.734 12.4562C124.426 12.9989 124.272 13.6515 124.272 14.4142C124.272 15.1622 124.426 15.8149 124.734 16.3722C125.042 16.9295 125.452 17.3549 125.966 17.6482C126.494 17.9415 127.088 18.0882 127.748 18.0882Z" fill="white"/>
<path d="M114.436 20.508C113.263 20.508 112.17 20.3173 111.158 19.936C110.161 19.54 109.288 18.99 108.54 18.286C107.807 17.5673 107.235 16.724 106.824 15.756C106.414 14.788 106.208 13.732 106.208 12.588C106.208 11.444 106.414 10.388 106.824 9.41997C107.235 8.45197 107.814 7.61597 108.562 6.91197C109.31 6.1933 110.183 5.6433 111.18 5.26197C112.178 4.86597 113.27 4.66797 114.458 4.66797C115.72 4.66797 116.871 4.88797 117.912 5.32797C118.954 5.7533 119.834 6.3913 120.552 7.24197L118.704 8.97997C118.147 8.37864 117.524 7.9313 116.834 7.63797C116.145 7.32997 115.397 7.17597 114.59 7.17597C113.784 7.17597 113.043 7.30797 112.368 7.57197C111.708 7.83597 111.129 8.20997 110.63 8.69397C110.146 9.17797 109.765 9.74997 109.486 10.41C109.222 11.07 109.09 11.796 109.09 12.588C109.09 13.38 109.222 14.106 109.486 14.766C109.765 15.426 110.146 15.998 110.63 16.482C111.129 16.966 111.708 17.34 112.368 17.604C113.043 17.868 113.784 18 114.59 18C115.397 18 116.145 17.8533 116.834 17.56C117.524 17.252 118.147 16.79 118.704 16.174L120.552 17.934C119.834 18.77 118.954 19.408 117.912 19.848C116.871 20.288 115.712 20.508 114.436 20.508Z" fill="white"/>
<path d="M98.2548 20.4422C97.0522 20.4422 95.9815 20.1855 95.0428 19.6722C94.1042 19.1442 93.3635 18.4255 92.8208 17.5162C92.2782 16.6069 92.0068 15.5729 92.0068 14.4142C92.0068 13.2409 92.2782 12.2069 92.8208 11.3122C93.3635 10.4029 94.1042 9.69154 95.0428 9.1782C95.9815 8.66487 97.0522 8.4082 98.2548 8.4082C99.4722 8.4082 100.55 8.66487 101.489 9.1782C102.442 9.69154 103.183 10.3955 103.711 11.2902C104.254 12.1849 104.525 13.2262 104.525 14.4142C104.525 15.5729 104.254 16.6069 103.711 17.5162C103.183 18.4255 102.442 19.1442 101.489 19.6722C100.55 20.1855 99.4722 20.4422 98.2548 20.4422ZM98.2548 18.0882C98.9295 18.0882 99.5308 17.9415 100.059 17.6482C100.587 17.3549 100.998 16.9295 101.291 16.3722C101.599 15.8149 101.753 15.1622 101.753 14.4142C101.753 13.6515 101.599 12.9989 101.291 12.4562C100.998 11.8989 100.587 11.4735 100.059 11.1802C99.5308 10.8869 98.9368 10.7402 98.2768 10.7402C97.6022 10.7402 97.0008 10.8869 96.4728 11.1802C95.9595 11.4735 95.5488 11.8989 95.2408 12.4562C94.9328 12.9989 94.7788 13.6515 94.7788 14.4142C94.7788 15.1622 94.9328 15.8149 95.2408 16.3722C95.5488 16.9295 95.9595 17.3549 96.4728 17.6482C97.0008 17.9415 97.5948 18.0882 98.2548 18.0882Z" fill="white"/>
<path d="M88.5693 20.4423C87.2787 20.4423 86.2813 20.1123 85.5773 19.4523C84.8733 18.7777 84.5213 17.7877 84.5213 16.4823V5.94434H87.2713V16.4163C87.2713 16.9737 87.4107 17.4063 87.6893 17.7143C87.9827 18.0223 88.386 18.1763 88.8993 18.1763C89.5153 18.1763 90.0287 18.015 90.4393 17.6923L91.2093 19.6503C90.8867 19.9143 90.4907 20.1123 90.0213 20.2443C89.552 20.3763 89.068 20.4423 88.5693 20.4423ZM82.5853 10.8283V8.62834H90.4173V10.8283H82.5853Z" fill="white"/>
<path d="M75.6873 20.4422C74.734 20.4422 73.8613 20.2222 73.0693 19.7822C72.292 19.3422 71.6686 18.6822 71.1993 17.8022C70.7446 16.9075 70.5173 15.7782 70.5173 14.4142C70.5173 13.0355 70.7373 11.9062 71.1773 11.0262C71.632 10.1462 72.248 9.49354 73.0253 9.0682C73.8026 8.6282 74.69 8.4082 75.6873 8.4082C76.846 8.4082 77.8653 8.65754 78.7453 9.1562C79.64 9.65487 80.344 10.3515 80.8573 11.2462C81.3853 12.1409 81.6493 13.1969 81.6493 14.4142C81.6493 15.6315 81.3853 16.6949 80.8573 17.6042C80.344 18.4989 79.64 19.1955 78.7453 19.6942C77.8653 20.1929 76.846 20.4422 75.6873 20.4422ZM69.1753 24.5562V8.5402H71.7933V11.3122L71.7053 14.4362L71.9253 17.5602V24.5562H69.1753ZM75.3793 18.0882C76.0393 18.0882 76.626 17.9415 77.1393 17.6482C77.6673 17.3549 78.0853 16.9295 78.3933 16.3722C78.7013 15.8149 78.8553 15.1622 78.8553 14.4142C78.8553 13.6515 78.7013 12.9989 78.3933 12.4562C78.0853 11.8989 77.6673 11.4735 77.1393 11.1802C76.626 10.8869 76.0393 10.7402 75.3793 10.7402C74.7193 10.7402 74.1253 10.8869 73.5973 11.1802C73.0693 11.4735 72.6513 11.8989 72.3433 12.4562C72.0353 12.9989 71.8813 13.6515 71.8813 14.4142C71.8813 15.1622 72.0353 15.8149 72.3433 16.3722C72.6513 16.9295 73.0693 17.3549 73.5973 17.6482C74.1253 17.9415 74.7193 18.0882 75.3793 18.0882Z" fill="white"/>
<path d="M57.5345 24.71C56.9625 24.71 56.3906 24.6147 55.8186 24.424C55.2466 24.2334 54.7699 23.9694 54.3885 23.632L55.4886 21.608C55.7672 21.8574 56.0826 22.0554 56.4346 22.202C56.7866 22.3487 57.1459 22.422 57.5126 22.422C58.0112 22.422 58.4146 22.2974 58.7226 22.048C59.0306 21.7987 59.3166 21.3807 59.5806 20.794L60.2626 19.254L60.4826 18.924L64.9265 8.54004H67.5665L62.0665 21.234C61.6999 22.114 61.2892 22.8107 60.8346 23.324C60.3946 23.8374 59.8959 24.1967 59.3386 24.402C58.7959 24.6074 58.1945 24.71 57.5345 24.71ZM59.9545 20.706L54.6525 8.54004H57.5126L61.8245 18.682L59.9545 20.706Z" fill="white"/>
<path d="M47.116 20.2882V8.5402H49.734V11.7742L49.426 10.8282C49.778 10.0362 50.328 9.43487 51.076 9.0242C51.8387 8.61354 52.7847 8.4082 53.914 8.4082V11.0262C53.7967 10.9969 53.6867 10.9822 53.584 10.9822C53.4814 10.9675 53.3787 10.9602 53.276 10.9602C52.2347 10.9602 51.406 11.2682 50.79 11.8842C50.174 12.4855 49.866 13.3875 49.866 14.5902V20.2882H47.116Z" fill="white"/>
<path d="M38.6336 20.508C37.4603 20.508 36.3676 20.3173 35.3556 19.936C34.3583 19.54 33.4856 18.99 32.7376 18.286C32.0043 17.5673 31.4323 16.724 31.0216 15.756C30.611 14.788 30.4056 13.732 30.4056 12.588C30.4056 11.444 30.611 10.388 31.0216 9.41997C31.4323 8.45197 32.0116 7.61597 32.7596 6.91197C33.5076 6.1933 34.3803 5.6433 35.3776 5.26197C36.375 4.86597 37.4676 4.66797 38.6556 4.66797C39.917 4.66797 41.0683 4.88797 42.1096 5.32797C43.151 5.7533 44.031 6.3913 44.7496 7.24197L42.9016 8.97997C42.3443 8.37864 41.721 7.9313 41.0316 7.63797C40.3423 7.32997 39.5943 7.17597 38.7876 7.17597C37.981 7.17597 37.2403 7.30797 36.5656 7.57197C35.9056 7.83597 35.3263 8.20997 34.8276 8.69397C34.3436 9.17797 33.9623 9.74997 33.6836 10.41C33.4196 11.07 33.2876 11.796 33.2876 12.588C33.2876 13.38 33.4196 14.106 33.6836 14.766C33.9623 15.426 34.3436 15.998 34.8276 16.482C35.3263 16.966 35.9056 17.34 36.5656 17.604C37.2403 17.868 37.981 18 38.7876 18C39.5943 18 40.3423 17.8533 41.0316 17.56C41.721 17.252 42.3443 16.79 42.9016 16.174L44.7496 17.934C44.031 18.77 43.151 19.408 42.1096 19.848C41.0683 20.288 39.9096 20.508 38.6336 20.508Z" fill="white"/>
<rect width="24" height="24" rx="5.6" fill="url(#paint0_linear_832_146)"/>
<g filter="url(#filter0_d_832_146)">
<mask id="path-12-inside-1_832_146" fill="white">
<path fill-rule="evenodd" clip-rule="evenodd" d="M12.8385 8.63578C12.7257 9.63008 12.1348 10.5067 11.2554 10.9842L11.1719 11.0296C10.319 11.4927 9.30239 11.5449 8.40659 11.1716L6.51188 10.382C5.66771 10.0303 5.34317 9.00344 5.83183 8.23041C6.28732 7.50985 7.25667 7.32368 7.94668 7.82424L9.3899 8.87121C9.54974 8.98716 9.76186 9.00133 9.9357 8.90765C10.1261 8.80506 10.2319 8.59432 10.2005 8.38037L9.99133 6.95588C9.85671 6.03892 10.5594 5.21276 11.486 5.19843C12.4115 5.18412 13.139 5.98618 13.0347 6.90589L12.8385 8.63578ZM12.9737 12.006C12.9737 12.9699 13.4478 13.8721 14.2417 14.4188L16.0176 15.6418C16.7262 16.1298 17.6999 15.9166 18.1397 15.177C18.6122 14.3822 18.2528 13.3534 17.388 13.0259L15.8554 12.4453C15.6723 12.376 15.5512 12.2006 15.5512 12.0048C15.5512 11.8102 15.6709 11.6356 15.8524 11.5655L17.4025 10.9664C18.2605 10.6348 18.6124 9.60986 18.139 8.82118C17.699 8.0881 16.7317 7.87831 16.0276 8.36325L14.2416 9.59322C13.4478 10.1399 12.9737 11.0421 12.9737 12.006ZM5.84746 15.7679C5.35114 14.9878 5.67789 13.9487 6.53134 13.5931L8.40954 12.8104C9.30348 12.4378 10.318 12.4899 11.1691 12.952L11.2479 12.9948C12.132 13.4749 12.7261 14.3562 12.8395 15.3559L13.0362 17.091C13.14 18.0058 12.4204 18.8054 11.4997 18.7983C10.5683 18.7912 9.85799 17.9626 9.99328 17.041L10.2006 15.6288C10.2319 15.4154 10.1264 15.2052 9.93646 15.1028C9.7623 15.009 9.54968 15.0237 9.39008 15.1406L7.98475 16.17C7.29001 16.6789 6.30974 16.4945 5.84746 15.7679Z"/>
</mask>
<path fill-rule="evenodd" clip-rule="evenodd" d="M12.8385 8.63578C12.7257 9.63008 12.1348 10.5067 11.2554 10.9842L11.1719 11.0296C10.319 11.4927 9.30239 11.5449 8.40659 11.1716L6.51188 10.382C5.66771 10.0303 5.34317 9.00344 5.83183 8.23041C6.28732 7.50985 7.25667 7.32368 7.94668 7.82424L9.3899 8.87121C9.54974 8.98716 9.76186 9.00133 9.9357 8.90765C10.1261 8.80506 10.2319 8.59432 10.2005 8.38037L9.99133 6.95588C9.85671 6.03892 10.5594 5.21276 11.486 5.19843C12.4115 5.18412 13.139 5.98618 13.0347 6.90589L12.8385 8.63578ZM12.9737 12.006C12.9737 12.9699 13.4478 13.8721 14.2417 14.4188L16.0176 15.6418C16.7262 16.1298 17.6999 15.9166 18.1397 15.177C18.6122 14.3822 18.2528 13.3534 17.388 13.0259L15.8554 12.4453C15.6723 12.376 15.5512 12.2006 15.5512 12.0048C15.5512 11.8102 15.6709 11.6356 15.8524 11.5655L17.4025 10.9664C18.2605 10.6348 18.6124 9.60986 18.139 8.82118C17.699 8.0881 16.7317 7.87831 16.0276 8.36325L14.2416 9.59322C13.4478 10.1399 12.9737 11.0421 12.9737 12.006ZM5.84746 15.7679C5.35114 14.9878 5.67789 13.9487 6.53134 13.5931L8.40954 12.8104C9.30348 12.4378 10.318 12.4899 11.1691 12.952L11.2479 12.9948C12.132 13.4749 12.7261 14.3562 12.8395 15.3559L13.0362 17.091C13.14 18.0058 12.4204 18.8054 11.4997 18.7983C10.5683 18.7912 9.85799 17.9626 9.99328 17.041L10.2006 15.6288C10.2319 15.4154 10.1264 15.2052 9.93646 15.1028C9.7623 15.009 9.54968 15.0237 9.39008 15.1406L7.98475 16.17C7.29001 16.6789 6.30974 16.4945 5.84746 15.7679Z" fill="url(#paint1_linear_832_146)" shape-rendering="crispEdges"/>
<path d="M11.2554 10.9842L11.1335 10.7599L11.1335 10.7599L11.2554 10.9842ZM12.8385 8.63578L12.5848 8.60701L12.8385 8.63578ZM11.1719 11.0296L11.2937 11.254H11.2937L11.1719 11.0296ZM8.40659 11.1716L8.5048 10.9359L8.40659 11.1716ZM6.51188 10.382L6.41367 10.6177L6.51188 10.382ZM5.83183 8.23041L5.61601 8.09398L5.83183 8.23041ZM7.94668 7.82424L7.79676 8.03091H7.79676L7.94668 7.82424ZM9.3899 8.87121L9.23998 9.07788V9.07788L9.3899 8.87121ZM9.9357 8.90765L10.0568 9.13241V9.13241L9.9357 8.90765ZM10.2005 8.38037L10.4531 8.34329L10.2005 8.38037ZM9.99133 6.95588L9.73872 6.99297V6.99297L9.99133 6.95588ZM11.486 5.19843L11.4821 4.94314L11.486 5.19843ZM13.0347 6.90589L12.781 6.87712L13.0347 6.90589ZM14.2417 14.4188L14.3865 14.2085H14.3865L14.2417 14.4188ZM16.0176 15.6418L15.8728 15.8521L16.0176 15.6418ZM18.1397 15.177L17.9202 15.0465L18.1397 15.177ZM17.388 13.0259L17.4785 12.7871L17.388 13.0259ZM15.8554 12.4453L15.765 12.6841L15.8554 12.4453ZM15.8524 11.5655L15.9445 11.8036L15.8524 11.5655ZM17.4025 10.9664L17.3105 10.7282L17.4025 10.9664ZM18.139 8.82118L18.358 8.68979V8.68979L18.139 8.82118ZM16.0276 8.36325L16.1724 8.57353L16.0276 8.36325ZM14.2416 9.59322L14.0968 9.38294L14.2416 9.59322ZM6.53134 13.5931L6.62955 13.8287H6.62955L6.53134 13.5931ZM5.84746 15.7679L6.06287 15.6308L5.84746 15.7679ZM8.40954 12.8104L8.50775 13.046L8.40954 12.8104ZM11.1691 12.952L11.2909 12.7277L11.1691 12.952ZM11.2479 12.9948L11.3697 12.7704L11.2479 12.9948ZM12.8395 15.3559L12.5858 15.3846L12.8395 15.3559ZM13.0362 17.091L13.2899 17.0622L13.0362 17.091ZM11.4997 18.7983L11.4977 19.0536L11.4997 18.7983ZM9.99328 17.041L9.74067 17.0039L9.99328 17.041ZM10.2006 15.6288L10.4532 15.6659L10.2006 15.6288ZM9.93646 15.1028L9.81534 15.3276H9.81534L9.93646 15.1028ZM9.39008 15.1406L9.54096 15.3466H9.54096L9.39008 15.1406ZM7.98475 16.17L7.83388 15.964H7.83388L7.98475 16.17ZM11.3772 11.2086C12.3299 10.6913 12.97 9.74166 13.0922 8.66455L12.5848 8.60701C12.4814 9.51849 11.9397 10.3221 11.1335 10.7599L11.3772 11.2086ZM11.2937 11.254L11.3772 11.2086L11.1335 10.7599L11.05 10.8052L11.2937 11.254ZM8.30838 11.4073C9.27547 11.8103 10.373 11.7539 11.2937 11.254L11.05 10.8052C10.265 11.2314 9.32932 11.2795 8.5048 10.9359L8.30838 11.4073ZM6.41367 10.6177L8.30838 11.4073L8.5048 10.9359L6.61009 10.1464L6.41367 10.6177ZM5.61601 8.09398C5.04284 9.0007 5.42351 10.2051 6.41367 10.6177L6.61009 10.1464C5.9119 9.85542 5.64349 9.00618 6.04764 8.36683L5.61601 8.09398ZM8.0966 7.61758C7.28726 7.03045 6.15027 7.24881 5.61601 8.09398L6.04764 8.36683C6.42436 7.77088 7.22608 7.61691 7.79676 8.03091L8.0966 7.61758ZM9.53982 8.66455L8.0966 7.61758L7.79676 8.03091L9.23998 9.07788L9.53982 8.66455ZM9.81457 8.68289C9.72707 8.73004 9.62029 8.72292 9.53982 8.66455L9.23998 9.07788C9.47919 9.25141 9.79666 9.27261 10.0568 9.13241L9.81457 8.68289ZM9.94786 8.41746C9.96367 8.52516 9.9104 8.63125 9.81457 8.68289L10.0568 9.13241C10.3417 8.97888 10.5001 8.66349 10.4531 8.34329L9.94786 8.41746ZM9.73872 6.99297L9.94786 8.41746L10.4531 8.34329L10.2439 6.91879L9.73872 6.99297ZM11.4821 4.94314C10.4012 4.95985 9.5817 5.92345 9.73872 6.99297L10.2439 6.91879C10.1317 6.15438 10.7175 5.46566 11.49 5.45372L11.4821 4.94314ZM13.2884 6.93466C13.41 5.86195 12.5615 4.92645 11.4821 4.94314L11.49 5.45372C12.2615 5.44179 12.8679 6.11042 12.781 6.87712L13.2884 6.93466ZM13.0922 8.66455L13.2884 6.93466L12.781 6.87712L12.5848 8.60701L13.0922 8.66455ZM14.3865 14.2085C13.6618 13.7095 13.229 12.8859 13.229 12.006H12.7184C12.7184 13.0539 13.2338 14.0347 14.0969 14.6291L14.3865 14.2085ZM16.1624 15.4315L14.3865 14.2085L14.0969 14.6291L15.8728 15.8521L16.1624 15.4315ZM17.9202 15.0465C17.5559 15.6591 16.7494 15.8358 16.1624 15.4315L15.8728 15.8521C16.7031 16.4239 17.8439 16.174 18.3591 15.3075L17.9202 15.0465ZM17.2976 13.2646C18.0139 13.5359 18.3117 14.3881 17.9202 15.0465L18.3591 15.3075C18.9128 14.3762 18.4916 13.1708 17.4785 12.7871L17.2976 13.2646ZM15.765 12.6841L17.2976 13.2646L17.4785 12.7871L15.9459 12.2066L15.765 12.6841ZM15.2959 12.0048C15.2959 12.3067 15.4826 12.5772 15.765 12.6841L15.9459 12.2066C15.862 12.1748 15.8065 12.0945 15.8065 12.0048H15.2959ZM15.7604 11.3273C15.4805 11.4355 15.2959 11.7047 15.2959 12.0048H15.8065C15.8065 11.9157 15.8614 11.8357 15.9445 11.8036L15.7604 11.3273ZM17.3105 10.7282L15.7604 11.3273L15.9445 11.8036L17.4946 11.2045L17.3105 10.7282ZM17.9201 8.95257C18.3119 9.60539 18.0207 10.4537 17.3105 10.7282L17.4946 11.2045C18.5004 10.8158 18.9128 9.61433 18.358 8.68979L17.9201 8.95257ZM16.1724 8.57353C16.7553 8.17213 17.5559 8.34578 17.9201 8.95257L18.358 8.68979C17.8422 7.83042 16.7082 7.58449 15.8828 8.15297L16.1724 8.57353ZM14.3864 9.80349L16.1724 8.57353L15.8828 8.15297L14.0968 9.38294L14.3864 9.80349ZM13.229 12.006C13.229 11.1261 13.6618 10.3025 14.3864 9.80349L14.0968 9.38294C13.2338 9.97728 12.7184 10.9581 12.7184 12.006H13.229ZM6.43312 13.3574C5.43341 13.774 5.05067 14.9912 5.63204 15.9049L6.06287 15.6308C5.65162 14.9844 5.92236 14.1234 6.62955 13.8287L6.43312 13.3574ZM8.31133 12.5747L6.43312 13.3574L6.62955 13.8287L8.50775 13.046L8.31133 12.5747ZM11.2909 12.7277C10.372 12.2287 9.27655 12.1725 8.31133 12.5747L8.50775 13.046C9.33041 12.7032 10.264 12.7511 11.0472 13.1764L11.2909 12.7277ZM11.3697 12.7704L11.2909 12.7277L11.0472 13.1764L11.126 13.2192L11.3697 12.7704ZM13.0932 15.3271C12.9704 14.2447 12.327 13.2903 11.3697 12.7704L11.126 13.2192C11.9369 13.6595 12.4818 14.4678 12.5858 15.3846L13.0932 15.3271ZM13.2899 17.0622L13.0932 15.3271L12.5858 15.3846L12.7826 17.1197L13.2899 17.0622ZM11.4977 19.0536C12.5716 19.0619 13.4109 18.1292 13.2899 17.0622L12.7826 17.1197C12.869 17.8823 12.2692 18.5489 11.5017 18.543L11.4977 19.0536ZM9.74067 17.0039C9.58287 18.0788 10.4113 19.0453 11.4977 19.0536L11.5017 18.543C10.7252 18.537 10.1331 17.8463 10.2459 17.0781L9.74067 17.0039ZM9.94799 15.5917L9.74067 17.0039L10.2459 17.0781L10.4532 15.6659L9.94799 15.5917ZM9.81534 15.3276C9.91071 15.379 9.96372 15.4846 9.94799 15.5917L10.4532 15.6659C10.5001 15.3462 10.342 15.0314 10.0576 14.8781L9.81534 15.3276ZM9.54096 15.3466C9.62111 15.2878 9.72788 15.2805 9.81534 15.3276L10.0576 14.8781C9.79671 14.7375 9.47826 14.7595 9.23921 14.9346L9.54096 15.3466ZM8.13563 16.376L9.54096 15.3466L9.23921 14.9346L7.83388 15.964L8.13563 16.376ZM5.63204 15.9049C6.17355 16.7561 7.32182 16.9721 8.13563 16.376L7.83388 15.964C7.2582 16.3857 6.44593 16.2329 6.06287 15.6308L5.63204 15.9049Z" fill="url(#paint2_linear_832_146)" fill-opacity="0.5" mask="url(#path-12-inside-1_832_146)"/>
</g>
<defs>
<filter id="filter0_d_832_146" x="4.32631" y="4.17697" width="15.8118" height="16.6644" filterUnits="userSpaceOnUse" color-interpolation-filters="sRGB">
<feFlood flood-opacity="0" result="BackgroundImageFix"/>
<feColorMatrix in="SourceAlpha" type="matrix" values="0 0 0 0 0 0 0 0 0 0 0 0 0 0 0 0 0 0 127 0" result="hardAlpha"/>
<feOffset dx="0.255319" dy="0.510638"/>
<feGaussianBlur stdDeviation="0.765957"/>
<feComposite in2="hardAlpha" operator="out"/>
<feColorMatrix type="matrix" values="0 0 0 0 0 0 0 0 0 0 0 0 0 0 0 0 0 0 0.2 0"/>
<feBlend mode="normal" in2="BackgroundImageFix" result="effect1_dropShadow_832_146"/>
<feBlend mode="normal" in="SourceGraphic" in2="effect1_dropShadow_832_146" result="shape"/>
</filter>
<linearGradient id="paint0_linear_832_146" x1="5.56522" y1="2.43478" x2="22.4348" y2="24.8696" gradientUnits="userSpaceOnUse">
<stop stop-color="#5F9FFF"/>
<stop offset="1" stop-color="#0C4CB2"/>
</linearGradient>
<linearGradient id="paint1_linear_832_146" x1="7.00284" y1="6.8983" x2="15.191" y2="15.8797" gradientUnits="userSpaceOnUse">
<stop stop-color="white"/>
<stop offset="0.935817" stop-color="white" stop-opacity="0.7"/>
</linearGradient>
<linearGradient id="paint2_linear_832_146" x1="6.64628" y1="6.78657" x2="8.45598" y2="15.1645" gradientUnits="userSpaceOnUse">
<stop offset="0.0106023" stop-color="#D0E0F8" stop-opacity="0"/>
<stop offset="1" stop-color="#CDDCF3"/>
</linearGradient>
</defs>
</svg>
